<svg xmlns="http://www.w3.org/2000/svg" width="32" height="32" viewBox="0 0 32 32">
  <!-- Base grass color -->
  <rect x="0" y="0" width="32" height="32" fill="#4a7c4e"/>

  <!-- Grass texture - darker patches -->
  <rect x="2" y="3" width="4" height="3" fill="#3d6b40" rx="1"/>
  <rect x="14" y="1" width="5" height="3" fill="#3d6b40" rx="1"/>
  <rect x="26" y="5" width="4" height="3" fill="#3d6b40" rx="1"/>
  <rect x="8" y="12" width="4" height="3" fill="#3d6b40" rx="1"/>
  <rect x="20" y="14" width="5" height="3" fill="#3d6b40" rx="1"/>
  <rect x="1" y="20" width="4" height="3" fill="#3d6b40" rx="1"/>
  <rect x="12" y="24" width="4" height="3" fill="#3d6b40" rx="1"/>
  <rect x="24" y="22" width="5" height="3" fill="#3d6b40" rx="1"/>

  <!-- Grass blades - lighter highlights -->
  <line x1="5" y1="8" x2="5" y2="5" stroke="#5a9c5e" stroke-width="1"/>
  <line x1="7" y1="9" x2="7" y2="6" stroke="#5a9c5e" stroke-width="1"/>
  <line x1="18" y1="7" x2="18" y2="4" stroke="#5a9c5e" stroke-width="1"/>
  <line x1="28" y1="12" x2="28" y2="9" stroke="#5a9c5e" stroke-width="1"/>
  <line x1="3" y1="16" x2="3" y2="13" stroke="#5a9c5e" stroke-width="1"/>
  <line x1="15" y1="19" x2="15" y2="16" stroke="#5a9c5e" stroke-width="1"/>
  <line x1="25" y1="28" x2="25" y2="25" stroke="#5a9c5e" stroke-width="1"/>
  <line x1="10" y1="30" x2="10" y2="27" stroke="#5a9c5e" stroke-width="1"/>

  <!-- Small flower dots -->
  <circle cx="22" cy="8" r="1" fill="#f0e68c"/>
  <circle cx="6" cy="26" r="1" fill="#ffb6c1"/>
  <circle cx="28" cy="18" r="1" fill="#f0e68c"/>
</svg>
