<svg xmlns="http://www.w3.org/2000/svg" width="32" height="32" viewBox="0 0 32 32">
  <!-- Base grass color -->
  <rect x="0" y="0" width="32" height="32" fill="#3d8c40"/>

  <!-- Darker grass patches for texture -->
  <rect x="1" y="2" width="6" height="4" fill="#358538" rx="1"/>
  <rect x="12" y="0" width="5" height="3" fill="#358538" rx="1"/>
  <rect x="24" y="4" width="6" height="4" fill="#358538" rx="1"/>
  <rect x="6" y="10" width="5" height="4" fill="#358538" rx="1"/>
  <rect x="18" y="12" width="6" height="3" fill="#358538" rx="1"/>
  <rect x="0" y="18" width="5" height="4" fill="#358538" rx="1"/>
  <rect x="10" y="22" width="6" height="4" fill="#358538" rx="1"/>
  <rect x="22" y="20" width="6" height="3" fill="#358538" rx="1"/>
  <rect x="2" y="28" width="5" height="4" fill="#358538" rx="1"/>
  <rect x="16" y="26" width="4" height="4" fill="#358538" rx="1"/>

  <!-- Lighter grass highlights -->
  <rect x="8" y="5" width="3" height="2" fill="#4a9e4d" rx="0.5"/>
  <rect x="20" y="8" width="3" height="2" fill="#4a9e4d" rx="0.5"/>
  <rect x="3" y="14" width="2" height="2" fill="#4a9e4d" rx="0.5"/>
  <rect x="14" y="16" width="3" height="2" fill="#4a9e4d" rx="0.5"/>
  <rect x="26" y="14" width="3" height="2" fill="#4a9e4d" rx="0.5"/>
  <rect x="6" y="24" width="2" height="2" fill="#4a9e4d" rx="0.5"/>
  <rect x="28" y="26" width="3" height="2" fill="#4a9e4d" rx="0.5"/>
</svg>
